<svg width="48" height="48" viewBox="0 0 48 48" fill="none" xmlns="http://www.w3.org/2000/svg">
<path fill-rule="evenodd" clip-rule="evenodd" d="M48 24C48 37.2548 37.2548 48 24 48C10.7452 48 0 37.2548 0 24C0 10.7452 10.7452 0 24 0C37.2548 0 48 10.7452 48 24ZM43.0654 24C43.0654 35.5524 33.5253 44.9174 21.757 44.9174C9.98869 44.9174 0.448592 35.5524 0.448592 24C0.448592 12.4476 9.98869 3.08257 21.757 3.08257C33.5253 3.08257 43.0654 12.4476 43.0654 24ZM37.4579 15.4128L36.1121 12.9908H20.8598L21.9813 10.5688H17.0467L15.4766 12.9908C5.38316 15.1927 5.83176 25.9817 6.05606 26.422C7.85045 32.5872 13.0093 30.1651 14.5794 27.0826L19.7383 15.4128H24C23.7009 16.0734 22.2056 19.6844 18.6168 28.844C15.028 38.0037 7.99998 35.5963 4.93456 33.2477C12.471 44.345 21.0841 39.1927 23.5514 34.789L30.9533 15.4128H37.4579ZM8.07482 22.8991C8.90808 16.9012 13.0842 14.9725 15.0281 14.7523L11.6636 22.6789C10.3177 25.9817 7.85046 27.9633 8.07482 22.8991Z" fill="#1877F2"/>
</svg>
