<svg width="62" height="41" viewBox="0 0 62 41" fill="none" xmlns="http://www.w3.org/2000/svg">
<path d="M26.4801 27.7678L26.0365 27.5371L25.9849 27.6363L25.9805 27.7481L26.4801 27.7678ZM9.69947 15.1653L9.85808 15.6394L9.92715 15.6163L9.98677 15.5745L9.69947 15.1653ZM18.0784 1L18.5182 0.76209L17.624 1.20846L18.0784 1ZM25.9805 27.7481C25.7218 34.282 20.3427 39.5 13.7451 39.5V40.5C20.8817 40.5 26.6999 34.8559 26.9797 27.7876L25.9805 27.7481ZM13.7451 39.5C6.98232 39.5 1.5 34.0177 1.5 27.2549H0.5C0.5 34.5699 6.43003 40.5 13.7451 40.5V39.5ZM1.5 27.2549C1.5 21.8515 5.00007 17.2644 9.85808 15.6394L9.54086 14.6911C4.28731 16.4484 0.5 21.4087 0.5 27.2549H1.5ZM9.98677 15.5745C12.5442 13.7791 15.1985 11.5321 16.9993 9.12769C18.7903 6.73638 19.8188 4.07304 18.8633 1.51891L17.9267 1.8693C18.7014 3.94007 17.9196 6.23089 16.1989 8.52822C14.4882 10.8124 11.9297 12.9886 9.41218 14.756L9.98677 15.5745ZM17.9397 1.90064C19.8961 6.2139 22.3042 11.9594 24.0252 16.9983C24.8863 19.5193 25.5705 21.8495 25.942 23.7288C26.1279 24.669 26.2327 25.4823 26.2458 26.1425C26.2591 26.8161 26.175 27.2707 26.0365 27.5371L26.9236 27.9986C27.1788 27.508 27.26 26.8501 27.2456 26.1227C27.2309 25.382 27.115 24.5058 26.9231 23.5348C26.5389 21.5919 25.8385 19.2135 24.9715 16.6751C23.2364 11.5949 20.8144 5.81754 18.8504 1.48756L17.9397 1.90064ZM17.6387 1.23791C17.7521 1.44757 17.8477 1.6581 17.9267 1.8693L18.8633 1.51891C18.7679 1.26382 18.6531 1.01142 18.5182 0.76209L17.6387 1.23791ZM18.8504 1.48756C18.7431 1.25116 18.6373 1.01904 18.5329 0.791542L17.624 1.20846C17.7277 1.43466 17.833 1.66551 17.9397 1.90064L18.8504 1.48756Z" fill="#1877F2"/>
<path d="M61.2272 27.7678L60.7836 27.5371L60.732 27.6363L60.7276 27.7481L61.2272 27.7678ZM44.4466 15.1653L44.6052 15.6395L44.6743 15.6163L44.7339 15.5745L44.4466 15.1653ZM52.8256 1L53.2653 0.76209L52.3711 1.20846L52.8256 1ZM60.7276 27.7481C60.469 34.282 55.0898 39.5 48.4922 39.5V40.5C55.6289 40.5 61.447 34.8559 61.7268 27.7876L60.7276 27.7481ZM48.4922 39.5C41.7294 39.5 36.2471 34.0177 36.2471 27.2549H35.2471C35.2471 34.5699 41.1772 40.5 48.4922 40.5V39.5ZM36.2471 27.2549C36.2471 21.8516 39.7472 17.2644 44.6052 15.6395L44.288 14.6911C39.0344 16.4484 35.2471 21.4087 35.2471 27.2549H36.2471ZM44.7339 15.5745C47.2913 13.7791 49.9456 11.5322 51.7465 9.12769C53.5375 6.73639 54.566 4.07304 53.6104 1.51891L52.6738 1.8693C53.4485 3.94008 52.6667 6.23089 50.9461 8.52823C49.2353 10.8124 46.6768 12.9886 44.1593 14.7561L44.7339 15.5745ZM52.6868 1.90064C54.6433 6.2139 57.0513 11.9594 58.7723 16.9983C59.6334 19.5193 60.3176 21.8495 60.6892 23.7288C60.8751 24.669 60.9798 25.4823 60.9929 26.1425C61.0062 26.8161 60.9222 27.2707 60.7836 27.5371L61.6708 27.9986C61.926 27.508 62.0071 26.8501 61.9927 26.1227C61.978 25.382 61.8621 24.5057 61.6702 23.5348C61.286 21.5919 60.5857 19.2135 59.7187 16.6751C57.9835 11.5949 55.5615 5.81753 53.5975 1.48756L52.6868 1.90064ZM52.3858 1.23791C52.4992 1.44757 52.5948 1.6581 52.6738 1.8693L53.6104 1.51891C53.515 1.26382 53.4002 1.01142 53.2653 0.76209L52.3858 1.23791ZM53.5975 1.48756C53.4903 1.25116 53.3844 1.01904 53.28 0.791542L52.3711 1.20846C52.4748 1.43466 52.5801 1.66551 52.6868 1.90064L53.5975 1.48756Z" fill="#1877F2"/>
</svg>
