<svg width="187" height="48" viewBox="0 0 187 48" fill="none" xmlns="http://www.w3.org/2000/svg">
<path d="M13.608 4.152V7.44H9.144V21H5.04V7.44H0.576V4.152H13.608ZM25.6757 18.024H19.3877L18.3797 21H14.0837L20.1797 4.152H24.9317L31.0277 21H26.6837L25.6757 18.024ZM24.6197 14.856L22.5317 8.688L20.4677 14.856H24.6197ZM38.499 21.168C37.267 21.168 36.163 20.968 35.187 20.568C34.211 20.168 33.427 19.576 32.835 18.792C32.259 18.008 31.955 17.064 31.923 15.96H36.291C36.355 16.584 36.571 17.064 36.939 17.4C37.307 17.72 37.787 17.88 38.379 17.88C38.987 17.88 39.467 17.744 39.819 17.472C40.171 17.184 40.347 16.792 40.347 16.296C40.347 15.88 40.203 15.536 39.915 15.264C39.643 14.992 39.299 14.768 38.883 14.592C38.483 14.416 37.907 14.216 37.155 13.992C36.067 13.656 35.179 13.32 34.491 12.984C33.803 12.648 33.211 12.152 32.715 11.496C32.219 10.84 31.971 9.984 31.971 8.928C31.971 7.36 32.539 6.136 33.675 5.256C34.811 4.36 36.291 3.912 38.115 3.912C39.971 3.912 41.467 4.36 42.603 5.256C43.739 6.136 44.347 7.368 44.427 8.952H39.987C39.955 8.408 39.755 7.984 39.387 7.68C39.019 7.36 38.547 7.2 37.971 7.2C37.475 7.2 37.075 7.336 36.771 7.608C36.467 7.864 36.315 8.24 36.315 8.736C36.315 9.28 36.571 9.704 37.083 10.008C37.595 10.312 38.395 10.64 39.483 10.992C40.571 11.36 41.451 11.712 42.123 12.048C42.811 12.384 43.403 12.872 43.899 13.512C44.395 14.152 44.643 14.976 44.643 15.984C44.643 16.944 44.395 17.816 43.899 18.6C43.419 19.384 42.715 20.008 41.787 20.472C40.859 20.936 39.763 21.168 38.499 21.168ZM62.5046 4.152L56.5286 21H51.3926L45.4166 4.152H49.7846L53.9606 16.872L58.1606 4.152H62.5046ZM67.8439 4.152V21H63.7399V4.152H67.8439ZM78.93 21L75.426 14.64H74.442V21H70.338V4.152H77.226C78.554 4.152 79.682 4.384 80.61 4.848C81.554 5.312 82.258 5.952 82.722 6.768C83.186 7.568 83.418 8.464 83.418 9.456C83.418 10.576 83.098 11.576 82.458 12.456C81.834 13.336 80.906 13.96 79.674 14.328L83.562 21H78.93ZM74.442 11.736H76.986C77.738 11.736 78.298 11.552 78.666 11.184C79.05 10.816 79.242 10.296 79.242 9.624C79.242 8.984 79.05 8.48 78.666 8.112C78.298 7.744 77.738 7.56 76.986 7.56H74.442V11.736ZM89.6183 4.152V21H85.5143V4.152H89.6183ZM106.56 4.152L100.728 15.432V21H96.6244V15.432L90.7924 4.152H95.4484L98.7124 11.208L101.952 4.152H106.56ZM120.308 21.168C118.724 21.168 117.268 20.8 115.94 20.064C114.628 19.328 113.58 18.304 112.796 16.992C112.028 15.664 111.644 14.176 111.644 12.528C111.644 10.88 112.028 9.4 112.796 8.088C113.58 6.776 114.628 5.752 115.94 5.016C117.268 4.28 118.724 3.912 120.308 3.912C121.892 3.912 123.34 4.28 124.652 5.016C125.98 5.752 127.02 6.776 127.772 8.088C128.54 9.4 128.924 10.88 128.924 12.528C128.924 14.176 128.54 15.664 127.772 16.992C127.004 18.304 125.964 19.328 124.652 20.064C123.34 20.8 121.892 21.168 120.308 21.168ZM120.308 17.424C121.652 17.424 122.724 16.976 123.524 16.08C124.34 15.184 124.748 14 124.748 12.528C124.748 11.04 124.34 9.856 123.524 8.976C122.724 8.08 121.652 7.632 120.308 7.632C118.948 7.632 117.86 8.072 117.044 8.952C116.244 9.832 115.844 11.024 115.844 12.528C115.844 14.016 116.244 15.208 117.044 16.104C117.86 16.984 118.948 17.424 120.308 17.424ZM145.175 4.152L139.343 15.432V21H135.239V15.432L129.407 4.152H134.063L137.327 11.208L140.567 4.152H145.175ZM150.453 4.152V21H146.349V4.152H150.453ZM168.019 21H163.915L157.051 10.608V21H152.947V4.152H157.051L163.915 14.592V4.152H168.019V21ZM181.002 18.024H174.714L173.706 21H169.41L175.506 4.152H180.258L186.354 21H182.01L181.002 18.024ZM179.946 14.856L177.858 8.688L175.794 14.856H179.946Z" fill="#1877F2"/>
<path d="M3.262 34.172V44H0.868V34.172H3.262ZM10.8769 34.172V40.864C10.8769 41.9 10.5829 42.698 9.99491 43.258C9.41624 43.818 8.63224 44.098 7.64291 44.098C6.60691 44.098 5.77624 43.804 5.15091 43.216C4.52557 42.628 4.21291 41.7927 4.21291 40.71H6.59291C6.59291 41.1207 6.67691 41.4333 6.84491 41.648C7.01291 41.8533 7.25557 41.956 7.57291 41.956C7.86224 41.956 8.08624 41.8627 8.24491 41.676C8.40357 41.4893 8.48291 41.2187 8.48291 40.864V34.172H10.8769ZM17.1787 44.098C16.2547 44.098 15.4053 43.8833 14.6307 43.454C13.8653 43.0247 13.254 42.4273 12.7967 41.662C12.3487 40.8873 12.1247 40.0193 12.1247 39.058C12.1247 38.0967 12.3487 37.2333 12.7967 36.468C13.254 35.7027 13.8653 35.1053 14.6307 34.676C15.4053 34.2467 16.2547 34.032 17.1787 34.032C18.1027 34.032 18.9473 34.2467 19.7127 34.676C20.4873 35.1053 21.094 35.7027 21.5327 36.468C21.9807 37.2333 22.2047 38.0967 22.2047 39.058C22.2047 40.0193 21.9807 40.8873 21.5327 41.662C21.0847 42.4273 20.478 43.0247 19.7127 43.454C18.9473 43.8833 18.1027 44.098 17.1787 44.098ZM17.1787 41.914C17.9627 41.914 18.588 41.6527 19.0547 41.13C19.5307 40.6073 19.7687 39.9167 19.7687 39.058C19.7687 38.19 19.5307 37.4993 19.0547 36.986C18.588 36.4633 17.9627 36.202 17.1787 36.202C16.3853 36.202 15.7507 36.4587 15.2747 36.972C14.808 37.4853 14.5747 38.1807 14.5747 39.058C14.5747 39.926 14.808 40.6213 15.2747 41.144C15.7507 41.6573 16.3853 41.914 17.1787 41.914ZM26.9385 34.172C27.9745 34.172 28.8798 34.3773 29.6545 34.788C30.4292 35.1987 31.0265 35.7773 31.4465 36.524C31.8758 37.2613 32.0905 38.1153 32.0905 39.086C32.0905 40.0473 31.8758 40.9013 31.4465 41.648C31.0265 42.3947 30.4245 42.9733 29.6405 43.384C28.8658 43.7947 27.9652 44 26.9385 44H23.2565V34.172H26.9385ZM26.7845 41.928C27.6898 41.928 28.3945 41.6807 28.8985 41.186C29.4025 40.6913 29.6545 39.9913 29.6545 39.086C29.6545 38.1807 29.4025 37.476 28.8985 36.972C28.3945 36.468 27.6898 36.216 26.7845 36.216H25.6505V41.928H26.7845ZM35.5424 34.172V44H33.1484V34.172H35.5424ZM45.4253 34.172L42.0233 40.752V44H39.6293V40.752L36.2273 34.172H38.9433L40.8473 38.288L42.7373 34.172H45.4253ZM51.1487 34.172V40.052C51.1487 40.64 51.2933 41.0927 51.5827 41.41C51.872 41.7273 52.2967 41.886 52.8567 41.886C53.4167 41.886 53.846 41.7273 54.1447 41.41C54.4433 41.0927 54.5927 40.64 54.5927 40.052V34.172H56.9867V40.038C56.9867 40.9153 56.8 41.6573 56.4267 42.264C56.0533 42.8707 55.5493 43.328 54.9147 43.636C54.2893 43.944 53.5893 44.098 52.8147 44.098C52.04 44.098 51.3447 43.9487 50.7287 43.65C50.122 43.342 49.6413 42.8847 49.2867 42.278C48.932 41.662 48.7547 40.9153 48.7547 40.038V34.172H51.1487ZM66.8158 34.172L63.4138 40.752V44H61.0198V40.752L57.6178 34.172H60.3338L62.2378 38.288L64.1278 34.172H66.8158ZM69.8943 34.172V44H67.5003V34.172H69.8943ZM74.9052 44.098C74.1866 44.098 73.5426 43.9813 72.9732 43.748C72.4039 43.5147 71.9466 43.1693 71.6012 42.712C71.2652 42.2547 71.0879 41.704 71.0692 41.06H73.6172C73.6546 41.424 73.7806 41.704 73.9952 41.9C74.2099 42.0867 74.4899 42.18 74.8352 42.18C75.1899 42.18 75.4699 42.1007 75.6752 41.942C75.8806 41.774 75.9832 41.5453 75.9832 41.256C75.9832 41.0133 75.8992 40.8127 75.7312 40.654C75.5726 40.4953 75.3719 40.3647 75.1292 40.262C74.8959 40.1593 74.5599 40.0427 74.1212 39.912C73.4866 39.716 72.9686 39.52 72.5672 39.324C72.1659 39.128 71.8206 38.8387 71.5312 38.456C71.2419 38.0733 71.0972 37.574 71.0972 36.958C71.0972 36.0433 71.4286 35.3293 72.0912 34.816C72.7539 34.2933 73.6172 34.032 74.6812 34.032C75.7639 34.032 76.6366 34.2933 77.2992 34.816C77.9619 35.3293 78.3166 36.048 78.3632 36.972H75.7732C75.7546 36.6547 75.6379 36.4073 75.4232 36.23C75.2086 36.0433 74.9332 35.95 74.5972 35.95C74.3079 35.95 74.0746 36.0293 73.8972 36.188C73.7199 36.3373 73.6312 36.5567 73.6312 36.846C73.6312 37.1633 73.7806 37.4107 74.0792 37.588C74.3779 37.7653 74.8446 37.9567 75.4792 38.162C76.1139 38.3767 76.6272 38.582 77.0192 38.778C77.4206 38.974 77.7659 39.2587 78.0552 39.632C78.3446 40.0053 78.4892 40.486 78.4892 41.074C78.4892 41.634 78.3446 42.1427 78.0552 42.6C77.7752 43.0573 77.3646 43.4213 76.8232 43.692C76.2819 43.9627 75.6426 44.098 74.9052 44.098ZM88.1945 34.172V44H85.8005V39.954H82.0765V44H79.6825V34.172H82.0765V38.022H85.8005V34.172H88.1945ZM100.773 34.172V44H98.3788V38.106L96.1808 44H94.2488L92.0368 38.092V44H89.6428V34.172H92.4708L95.2288 40.976L97.9588 34.172H100.773ZM108.332 42.264H104.664L104.076 44H101.57L105.126 34.172H107.898L111.454 44H108.92L108.332 42.264ZM107.716 40.416L106.498 36.818L105.294 40.416H107.716ZM115.813 44.098C115.094 44.098 114.45 43.9813 113.881 43.748C113.311 43.5147 112.854 43.1693 112.509 42.712C112.173 42.2547 111.995 41.704 111.977 41.06H114.525C114.562 41.424 114.688 41.704 114.903 41.9C115.117 42.0867 115.397 42.18 115.743 42.18C116.097 42.18 116.377 42.1007 116.583 41.942C116.788 41.774 116.891 41.5453 116.891 41.256C116.891 41.0133 116.807 40.8127 116.639 40.654C116.48 40.4953 116.279 40.3647 116.037 40.262C115.803 40.1593 115.467 40.0427 115.029 39.912C114.394 39.716 113.876 39.52 113.475 39.324C113.073 39.128 112.728 38.8387 112.439 38.456C112.149 38.0733 112.005 37.574 112.005 36.958C112.005 36.0433 112.336 35.3293 112.999 34.816C113.661 34.2933 114.525 34.032 115.589 34.032C116.671 34.032 117.544 34.2933 118.207 34.816C118.869 35.3293 119.224 36.048 119.271 36.972H116.681C116.662 36.6547 116.545 36.4073 116.331 36.23C116.116 36.0433 115.841 35.95 115.505 35.95C115.215 35.95 114.982 36.0293 114.805 36.188C114.627 36.3373 114.539 36.5567 114.539 36.846C114.539 37.1633 114.688 37.4107 114.987 37.588C115.285 37.7653 115.752 37.9567 116.387 38.162C117.021 38.3767 117.535 38.582 117.927 38.778C118.328 38.974 118.673 39.2587 118.963 39.632C119.252 40.0053 119.397 40.486 119.397 41.074C119.397 41.634 119.252 42.1427 118.963 42.6C118.683 43.0573 118.272 43.4213 117.731 43.692C117.189 43.9627 116.55 44.098 115.813 44.098ZM122.984 34.172V44H120.59V34.172H122.984Z" fill="#1877F2"/>
</svg>
